<?xml version="1.0" encoding="UTF-8"?>
<svg id="Layer_4" xmlns="http://www.w3.org/2000/svg" version="1.1" viewBox="0 0 1080 500">
  <!-- Generator: Adobe Illustrator 30.1.0, SVG Export Plug-In . SVG Version: 2.1.1 Build 136)  -->
  <defs>
    <style>
      .st0 {
        fill: none;
        stroke: #000;
        stroke-linecap: round;
        stroke-linejoin: round;
        stroke-width: 2px;
      }
    </style>
  </defs>
  <path class="st0" d="M1059.29,102.65c-94.87,14.4-381.18,105.04-462.49,132.14-81.32,27.11-256.66,92.33-396.42,142.31s-166.17,20.21-172.8,10.16c-9.32-14.12.85-39.53,107.58-111.81,115.94-78.52,237.89-140.77,302.23-140.55"/>
  <path class="st0" d="M363.85,307.64s17.7,44.05,176.15-149.93l-111.39,138.64s58.35-66.45,48.19-50.26-38.21,55.72-9.22,29.93,41.6-42.92,41.6-42.92c0,0-19.76,30.87,38.21-11.29,0,0-63.62,69.46,27.11-1.69,0,0-51.93,53.56,14.68,2.26,55.72-42.92,35.76,1.88,20.71,1.88"/>
  <path class="st0" d="M729.78,94.18s-60.41,99.94-74.81,121.69c0,0,50.53-67.47,83.85-70.86"/>
  <path class="st0" d="M577.88,207.97s7.34,1.27,14.96-5.65"/>
  <path class="st0" d="M745.03,171.92s-12.59,12.35-4.04,16.91"/>
  <path class="st0" d="M764.23,162.51s4.14,2.45,10.92-2.07"/>
  <path class="st0" d="M792.18,167.31"/>
  <path class="st0" d="M788.23,169.01s7.91-4.32,15.53-5.83,14.68-4.34,21.74-8.15,10.73-5.5,21.18-4.94,13.27-.85,18.92-4.24,17.51-6.21,27.11-6.78"/>
</svg>